<svg xmlns="http://www.w3.org/2000/svg" xml:space="preserve" width="4758.9" height="659.1" viewBox="0 0 1259.1 174.4">
  <path d="m-91 238-7-5-1-2-2-4-1-3v-2l-1-2 1-7v-3l3-5 5-6 8-6a43 43 0 0 1 14-3h3l1-1 2-2v-2a314 314 0 0 1-1-26l-2-5h-1l-2 2a41 41 0 0 1-8 3l-12 2c-3 0-7-2-9-5-3-3-7-8-7-10v-2l-1-5-1-3v-5a44 44 0 0 0-2-6v-7c0-2 1-3 3-2l2-1h3l3 5a1540 1540 0 0 1 8 28l2 2h3c5 0 8-1 12-4l3-5a132 132 0 0 1 3-8l1-6v-3l1-6 1-1c0-2 2-4 6-4l2 1c2 2 3 4 3 7l-1 6 1 26a755 755 0 0 1 4 35h2l9-1 4 1h3a82 82 0 0 1 15 0h2l13 1a208 208 0 0 1 32 2h12a171 171 0 0 0 19 0h11l3 1h1l7-1 10-1 2 1h3l2-1h20a114 114 0 0 0 8 1h25l2-1h5l4 1h3l4 1 3 1h2l8 1a144 144 0 0 1 18 1 386 386 0 0 1 23 1l9 1c3 0 4 1 4 2h6l5 1a45 45 0 0 1 15 2h3c2-1 4 0 4 1h16l4 1h6l5 1h44a123 123 0 0 0 12 0h23l11-1h5l5-1a310 310 0 0 0 36-1h4l2-1h7a140 140 0 0 0 14-1h8a245 245 0 0 1 42 1h6l3-1h7a159 159 0 0 1 26 0 1755 1755 0 0 1 64-2h18a95 95 0 0 0 24-1l5-1 3-1 3-1h3l3-2 2-1h1l1-1 2-1 3-2 2-1 1-1a31 31 0 0 0 10-12 509 509 0 0 1 16-37v-9a205 205 0 0 1-1-15l-1-6v-3c0-1 0-2-1-1v-1l-1-2-1-3-1-2v-1l-1-2-1-1v-1l-1-1a23 23 0 0 0-8-7v-1h-2a166 166 0 0 0-12-4h-4l-4-1-7-1-30-1-12 1a180 180 0 0 0-21 1h-8a526 526 0 0 1-34 1 226 226 0 0 1-49 2 1676 1676 0 0 1-76 2c-3 0-4 0-3 4v19l1 2v9l-1 2-2 6v10l-1 4v6a46 46 0 0 1-1 9l-1 6v1l-1 1-1 6v2l-2 4-1 3-2 2-1 2-1 1-1 1-1 1h-3l-8-2a117 117 0 0 0-15-7l-4-3-3-1c-2 0-3-1-4-3l-1-6c1-2 5-3 9-2l4 3 1 1 2 1 8 3 2 2 5 3h3l1-3 1-2v-2l1-1v-2l2-5v-5l1-2v-2l1-5v-11a153 153 0 0 0 1-36l1-5c0-7-1-8-3-8-1 0-2 0-1-1v-1l-14-1h-9a753 753 0 0 1-49-3h-12a1235 1235 0 0 1-52 1 242 242 0 0 1-41 0h-3l-6 1h-9l-7-1h-26a1461 1461 0 0 1-54 1h-8l-3 1h-2a179 179 0 0 1-21 1l-6 1H79l-5-1-2-1H60a634 634 0 0 1-71-1 324 324 0 0 0-29 0 46 46 0 0 1-16-1l-2-1h-26l-2 1-21-1a291 291 0 0 1-39-1h-9a76 76 0 0 0-9 1h-9l-2 1h-28a142 142 0 0 1-16 0l-3 1a94 94 0 0 0-10 1h-4l-4 1h-4l-6 1-6 1h-7a126 126 0 0 1-20 1h-10l-2-1h-18l-8 1h-10l-27 1-9 1h-4l-10 3-13 3h-1l-2 1h-2a51 51 0 0 1-14 2l-6 1h-3l-4 1-1 1 1 1c3 2 3 5 5 19a392 392 0 0 0 2 16 224 224 0 0 1-1 48l-1 4v1l-1 2-1 2-2 2v1l-1 2-1 2h-1l-1 1-8 1-7-1-4-1-2-1-2-1-1-1-3-3-1-1-2-2-1-2-4-10c0-2-2-3-3-2h-1l-2-1-2-3c0-2 2-3 3-3v-1l1-2 2-2 3-2 1-1 4-1h3c2 1 2 3 2 6v3a177 177 0 0 1 1 7l1 3 2 4 6 6 1 1h3l4-1 1-3 1-1v-1l1-2 1-6 1-9 1-4a957 957 0 0 1-1-21l-2-17c0-6-1-8-2-11l-1-3-1-2-1-7-1-2h-3l-3 1h-5l-1 1h-3a61 61 0 0 0-9 2l-1 1h-1l-1 1-3 2-4 2-3 2-1 1h-1v1l-2 1-1 1-6 2-2 2-2 1-3 2-3 1-1 1-6 6-2 3-1 1-1 3a84 84 0 0 0-12 22l-1 6v19a29 29 0 0 0 2 7l1 1 1 1 3 4 3 3 2 1 4 2 2 1 1 1 3 1v1h1c2 0 4 2 5 3l4 1 2 1 2 1 2 1 11 1a184 184 0 0 1 30 2l5-1h9l3-1 5-1 6-1a83 83 0 0 1 17-1l2-1 3-1 3-1a206 206 0 0 0 11 0h28c1-1 7 0 8 1h27a367 367 0 0 1 29 0h22a101 101 0 0 1 22 0h2l2-1h3l2-1 3-1h8l4-1 5-1 6 1h3l4-1h9l1 1h29l7 1h2l7-1 3-1h5l7 1 2 2v5l-1 1h-3l-2 1h-2l-5-1-3 1-12 1-2-1h-5l-4-1-9 1h-15l-9-1c-4-1-18 0-22 2l-10 1h-6l-4 1a398 398 0 0 1-48 1h-4a362 362 0 0 0-40-1 95 95 0 0 1-20-1h-2l-2 1h-7a2427 2427 0 0 1-37 2l-4 1h-3l-3 1-2 1h-5a96 96 0 0 0-15 2h-3a227 227 0 0 1-25 0 43 43 0 0 1-9 0h-6a80 80 0 0 0-9-1h-1l-6-2-3-1-1-1-2-1-1-1h-1l-2-2-3-1-2-1-1-1-2-1-4-2-5-4-3-2c-2 0-8-11-8-14l-1-5a61 61 0 0 1 0-23 383 383 0 0 0 3-13l1-1 1-2a13 13 0 0 0 3-4l1-3 2-2 2-3 1-2v-1l1-1 1-2a13 13 0 0 1 2-3l1-1 1-2 4-2 4-3 1-1 2-1 2-1 1-1 2-1 6-3 2-2 3-2 3-1 2-2 2-1 1-1 3-1 2-2h1l2-1 4-1 3-1 1-1h2l4-1h8l2-1h2l4-1h4l4-1 2-1h6l6-1h5l3 1v-1l2-1h8l1-1h1l2-1h2l3-1 2-1 5-1a44 44 0 0 0 7-1l3-1 2-1h2l4-1 3-1h3a762 762 0 0 0 57-1 133 133 0 0 0 32 0l5 1h1l2-1h10l3-1h3l3-1 4 1 1-1h2l6-1h4l3-1h4l3-1h10l2-1h13a476 476 0 0 0 46-1h26l2 1h37a258 258 0 0 0 29 0h1l1 1c1-1 4 0 4 1h2c0-1 2-2 4-1h10l2-1h2l3 1 6 1 5-1h7l1 1 1-1 1-1a146 146 0 0 0 11 1l5-1a99 99 0 0 1 25 3h7l2-1 11 1h19l2 1 9 1h6l3-1h6a140 140 0 0 0 20-2h14l3-1h6l3 1a215 215 0 0 0 12-1h2l2-1h8l4-1 11 1h3l9-1 7 1h12l2 1h16l3-1h8a167 167 0 0 1 28 0h11l7-1a380 380 0 0 0 51 0l10 1 3 1h13a86 86 0 0 1 10 0h12l2 1h6l10 1h26a79 79 0 0 0 10 0h3l4-1a857 857 0 0 0 70 0 163 163 0 0 0 29-1c1-2 4-2 11-2h12a217 217 0 0 0 22 0h7a49 49 0 0 1 6-1 322 322 0 0 0 29 0h3l3-1h8l3 1h12l4 1 8 1 3 1 8 2 3 1 3 1 5 1 1 2 2 1 2 1 3 4 2 2 2 2v2l2 4v2l1 2 1 2v2l1 1v3l1 1v2l1 3v3l1 3v7l1 3a928 928 0 0 0-3 20l-1 3-1 5-1 3-1 2-3 6-1 2v1l-1 1v1l-2 2-3 6-3 4-2 4-1 2-5 4-1 2-2 1-1 1-5 3-1 1h-1l-5 2-1 1-2 1-2 1-1 1c-1-1-4 0-8 1h-5l-5 1a222 222 0 0 1-29 1h-13a1239 1239 0 0 0-73 1 3732 3732 0 0 0-14 1 238 238 0 0 1-36-1 136 136 0 0 0-39 1h-6l-5 1h-18l-5 1h-12l-3 1h-3l-2-1-2 1-14 1a399 399 0 0 1-50 0 345 345 0 0 1-95-6 42 42 0 0 1-13-3h-3l-3-1h-6l-7-1h-24a144 144 0 0 0-9-1h-3l-9-2-7-1h-12l-9 1-11-1h-1l-4-1h-17l-1 1h-1l-3-1h-1l-4 1-1-1-6 1H71a328 328 0 0 0-38 0 67 67 0 0 1-18-1H0a149 149 0 0 1-26-1l-6-1-5 2h-2l-3 1-4 1-2-1c-1-2-2-2-3-2l-2 1c-2 0-3 0-3 2l-1 4-1 2-1 2-1 2-1 3-1 2-1 2-1 3-2 3-3 4a128 128 0 0 0-8 7l-2 1-3 2-4 1h-5zm7-13 3-2 2-1a61 61 0 0 1 4-7l1-2a54 54 0 0 0 4-8l1-4v-2h-2l-5 1-2 1-3 1-3 3-2 2-1 2-3 2c-2 1-2 3-1 4v2c-1 3 0 5 2 8l2 2 3-2zm-234-33-2-2c-2-1-2-1-1-6v-5l-1-6v-16a299 299 0 0 1-1-34v-5l-1-4v-4l2-1 2-1 5-2 3-1a46 46 0 0 1 14-2h5l1 1 3-1 4 1 1 1h3l2 1c2 0 4 2 3 3l1 1v5c-1 4-2 7-4 8l-3 2-6 4-3 2-3 2-2 1-4 1c-2 1-2 2 1 4l2 3 4 5 2 2 2 2 1 3 1 1 2 3 2 3 2 1 1 2 1 2 1 2 3 4 1 4-1 1-3 5-6-1-2-2v-3l-1-2-2-2-1-2-1-2-1-1-1-2-1-1-2-3-3-4-3-3-2-3-1-1-1-1-1-2c-1-2-3-3-3-2a207 207 0 0 0 1 39v6l-2 1-5 2-2-1zm10-64h2l4-2 4-2 2-1h1l2-2 3-2 4-5c0-1-1-2-3-2l-8-1a40 40 0 0 0-9 1l-4 1-1 3v12c0 1 1 2 3 0zm-81 63-2-2v-2l-1-4-1-11v-19a496 496 0 0 0 3-38c0-1 1-2 3-2l5-1 4 1h2l2-1 1-1h1l3-1 8-2 2-1h2l1-1c3-2 7 0 7 2v2l-1 1-2 3-3 2-1 1-3 1-3 1-2-1-4 1-3 1a103 103 0 0 0-6 2c-1 0-4 2-4 4v5l-1 6 1 5a31650 31650 0 0 0 11-1l4 1 2-2 2-1 2-1c2-1 5 1 6 5 1 3 0 6-2 7h-13a366 366 0 0 0-12 2l-1 3v5l1 11 2 4c2 0 3 1 3 3v2h6l9-1 4-2c3-1 8-2 9-1l2 1c1 0 2 2 1 4-1 3-2 4-8 5a1241 1241 0 0 0-36 5zm180-4c-2-1-2-3-2-6 0-2 1-2 3-4l1-2 2-5 2-3 3-7 1-3 1-2 1-2v-2l3-8 3-8 1-4 2-6 1-4 2-4v-1l1-2 1-3 1-5 1-2 3-1 2-1h1l2 1 2 1 3 7 1 4 1 2 1 2 1 3 1 2v4l1 2v3l1 3 1 2c0 2 1 1 4-5l1-2 1-2v-1l1-2 1-2 1-2 1-2 1-3 1-2 3-4c1-3 2-3 4-4h6c2 0 2 1 2 2l1 6v8l1 7 1 4 1 6 1 1 1 5a33 33 0 0 0 2 7l1 1v2l1 2 1 2 1 2-1 4c-1 2-2 2-5 1h-2l-4-3a30 30 0 0 1-3-9 59 59 0 0 1-4-16l-1-4-1-3-1 1-1 2-2 4c-2 5-6 12-8 13v2l-1 2-2 1-3 3h-3l-3-1-1-1c-1-1-3-5-3-8v-3l-1-2v-3l-1-3v-2l-1-4v-2l-1-3c-1-5-2-5-3-3l-1 2-1 4-1 6-1 2a1477 1477 0 0 1-11 29 242 242 0 0 0-8 15c0 2-1 3-3 3l-2 1h-4zm-42-2-2-1-1-2c-2-3-3-4-2-7l1-2a165 165 0 0 1 1-18 274 274 0 0 1 5-42l4-1 3-1 6-1 6-2 8-2 7-1 3 1c2 0 3 1 2 4l-2 4-3 1-2 1h-4l-8 1h-5l-4 1-1 2-1 3-1 6-1 4v4l1 1h6l6-1h5l2-1h8l1 4-1 2-4 2c-4 2-7 3-18 3h-7a264 264 0 0 0-1 24v3h2l3-1h4l2-1h3l7-1c2-1 5 0 7 2v5c-1 2-2 2-7 3h-9l-8 2-4 1-7 1zm897-3-1-1h-2l-7-2-2-1-3-2v-2c0-2 0-3-2-3v-1c1-1 1-2 3-2 3-2 5-2 7 0l1 1 2 1 6 1h6l2-2v-2l1-3 1-1s0-1 0 0c1 0 2-1 1-3v-3l-1-2-2-3-2-1-5-7-1-1v-1l-1-2-1-3-1-2-1-4v-5l-1-5 1-3h1l1-4v-1h1v-1l5-5v-1l3-2 1-1 2-1 3-1h8l2 1 4 4v1l2 2 1 2 1 3 1 4c0 3 0 4-2 6v1l-2 1-4 1h-2v-10l-1-3-1-2-1-1c0 1 0 0 0 0l-2-1h-3l-3 2-3 4-2 2c-2 1-2 1-2 4v7l1 2 1 2 1 4 2 3 1 1 1 1 1 1v1l1 1c2 0 4 2 4 3l1 1 1 1 1 2c2 5 2 5 1 7v3h-1v4l-1 2-2 3-1 1v1l-1 2-1 2c-2 2-2 3-4 3-4 2-9 2-12 2zm13-77-1-1v1h1zm-419 75c-2 0-3 0-3-3l-1-2c-2-1-2-2-2-6v-5l1-16 1-7v-4l1-3v-4a72 72 0 0 0 1-12v-3l-2-2v-3l1-2 2-1 1-1h1l2-1 2-1h1l8-2h7l3 1h3l3 1 3 6 1 2v4l1 3v9l-3 5-3 1-3 1-2 2 1 1a129 129 0 0 1 5 4l3 3 3 2 2 1 2 2 1 1 4 2h2l2 1 1 1v3l-1 1a457 457 0 0 0-1 5l-1 2a347 347 0 0 0-6-1l-4-4a67 67 0 0 1-5-4l-6-5-3-2-1-1-5-4-4-2-3-2-2-1h-1v12l-1 2v22l-2 2-2 2h-2zm11-50 2-1h1l4-2 3-1 3-1v-6l-1-5v-2l-2-1-4-1h-2l-3 1c-2 1-2 2-2 4l-2 14v1l1 1 2-1zM9 176l-2-2-1-6v-2a112 112 0 0 1 1-22 53 53 0 0 1 2-10v-6l1-9v-4l1-3-1-1-2-1-1-2 1-4 3-1 5-1h17l2 1h3c2-1 7 2 9 4 1 2 3 4 2 5v2c1 2 0 6-1 7l-1 1-4 3-2 1c-1 2-7 5-7 5l-2 1-7 3-1 1 1 1 2 2 1 1a442 442 0 0 0 17 13 39 39 0 0 1 8 4l5 5 2 2 2 3-1 2c0 2 0 2-2 3-1 2-2 2-3 2l-3-2h-2v-1l-7-7-2-1-1-1-2-1-1-1-2-1-2-1-2-2-2-2-3-1-2-2h-1l-2-2-2-2-2-1v2a134 134 0 0 0 0 24c1 2 0 4-1 5l-4 1-4-2zm13-51h1l2-1 2-2 2-1h1l2-1 1-1 5-3 1-2-1-1-1-1-2-1h-2l-4-1h-3l-4 2v3l-1 3-1 8 2-1zm298 52-2-1-2-1h-1l-1-7a41 41 0 0 1 1-13l2-12 1-9 1-3v-4l1-5v-8h-1l-13 1h-7l-2 1-4 1-4-1-1-2v-4c0-2 2-2 3-2h1l3-1h11l10-1h11l4-1h4l5-1 6-1h7l1 1h1v2l-1 5-2 1a455 455 0 0 0-13 5c-2 1-5 1-6-1h-1l-1 5v1l-1 4-1 3v1l-1 3v9l-2 16 1 8 1 2-1 2-1 4-1 1-2 1c0 2-1 2-3 1zm-198-1-1-2-1-1-1-1h-2l1-4v-14c0-21 0-27 2-30l1-2 2-5 1-1 2-3 4-2 2-1c1-2 3-2 9-2s7 1 9 2l1 1 1 1 1 1 5 5 1 6-2 6-1 1v3c1 2 3 3 5 2l1 1 3 2 1 1 1 1 2 1 1 1 1 1v1l1 2 1 3c0 2-1 6-3 8h-2a409 409 0 0 0-32 16l-2 1h-3l-1-1h-1l-2 1-3 1h-2zm8-11 2-1h3l3-1 2-1 2-1 1-1 1-1 8-3 8-5 1-2-4-4-3-1-2-1h-3a58 58 0 0 0-18 0l-1 5-1 6v12l1-1zm5-33 2-1 2-1 3-1 5-4c1-2 1-3-1-5l-4-2-6 1h-1c-1 0-2 3-1 4l-1 7v3l2-1zm57 43c-4 0-7-1-7-3l-1-3-2-2v-3l-2-6v-2l-1-4v-3l-1-1-1-5-1-9-1-7v-6a35 35 0 0 1 1-13c0-1 2-2 6-2h6l2 1h2l1-1h2c3 0 8 2 8 3l2 1 2 2 1 4-1 2c0 3-1 4-3 5h-2c-3 1-5-1-5-3 1-2 0-3-1-3v-1l-5-1-3-1h-1l-2 5v6l1 8v2l2-1h2l8-1 2-1 1-1 3-1 5-1 4 2c3 2 3 5 1 7l-5 2h-6l-3 1-4 1h-6l-1 1-1 6 2 6v2l1 3c1 4 2 5 3 5h9l2-2c1-2 1-2 3-2h3l2 1 2 1 2-1h2l3 4-2 1c-1 1-2 2 0 2 1 1-1 3-3 3l-2 1h-4l-3 1-2 1h-11l-1 1-2-1zm274-4-4-1h-2l-3-2c-3-2-5-4-5-6l-1-2v-1l-1-1-1-5 1-4v-5l1-1v-1l1-2c1 0 1 0 0 0l1-3 2-3 5-5c2-2 3-3 5-3l4-1c2-2 5-3 9-3 3 0 4 0 6 2l3 1 2 3 3 5v2l1 2v3l1 2v7h-1c1 0 0 0 0 0v2h-1v1l-1 2-1 5-1 1-5 6-3 1a33 33 0 0 1-15 4zm1-9 4-2 5-1 1-1 3-2 1-3 1-2 1-1v-5c1 0 1-1-1-4l-2-6h-6l-4 1h-2l-2 1-4 6v1l-1 2-1 5v2c-1 2 1 6 4 8 1 2 1 2 3 1zm37 8-2-2-1-3 1-6a61 61 0 0 0 2-6l1-2v-1l1-2 1-5 1-4 1-2 1-2 1-2v-2l1-1v-2l2-5 1-2 1-2 2-1c0-1 3-2 5-1 2 0 3 1 3 3l1 1 2 3-1 2-1 1 1 2 1 2h1v1l2 4c0 5 1 6 2 9l1 3h1l3-2 1-2 2-2 1-1 1-2v-1l1-2v-1l1-3 1-3v-8a308 308 0 0 0 2-24l6-1 2 2c2 0 2 0 3 4l1 3v2l-1 2v2c-1 1-2 5-1 10l-2 12a168 168 0 0 0-2 8l-1 2v1l-1 2-2 2-1 1-1 2-4 4v1l-3 2-6 1-6-1-2-1-2-3-1-5v-1l-2-2-1-3-1-2v-2s-1 0 0 0l-2-1v2l-2 6-1 4-1 3v4l-1 1-1 2-1 5v1l-1 2-1 1-3 1h-3zm80-6-3-3-1-1c-1-1-2-3-1-4v-2l1-3v-2l1-2 1-2v-2l1-1v-5l1-2v-2l2-3v-19l1-2 1-2v-3l4-1 6 1 4 2 2 1 5 1 1 1h2c2 1 4 5 3 7l-6 2-4-1c-2-2-3-2-6-2-2-1-2-1-3 1v4l-1 6c0 4 0 4 5 4h4l3-1h5l4-1 10-1 5 1 2 3-2 3h-1c0 2-1 3-5 4l-7 1c-2-1-9-2-13-1l-6 1-6 1v1c-1 0-1 0 0 0l-1 2v8h4l5-2 4-1c2-1 7 0 7 2l1 1-1 4-1 1-5 3-5 2-8 2-4 1h-5zm-507-3h-2l-1-1-7-3-1-2-1-1-2-3-1-7 1-6 1-3-2-2c-2 0-3-1-3-3l-1-2 1-2 1-1 2-1a304 304 0 0 1 10-3l4-2 2-1h3l4-2h5l2 1 6 2 1 2a37 37 0 0 1 6 13v4l1 4 1 4v1l-2 5-1 1-2 1a956 956 0 0 0-10 6 306 306 0 0 0-15 1zm6-9 2-1h2v-1l3-1h3l1-2 1-1 1-2-1-4v-1l-1-2-1-3-2-5-1-2h-2a49 49 0 0 0-7 1h-1l-1 1-1 1-2 2-1 3-1 2-1 5v6c2 3 3 4 5 4h5z" style="fill:#1d0214;fill-opacity:1" transform="translate(532 -64)"/>
</svg>
