<svg xmlns="http://www.w3.org/2000/svg" xml:space="preserve" width="3311.6" height="3311.6" viewBox="0 0 876.2 876.2">
  <path d="m-48 732-1-1-1-2-1-2-2-2-2-1h-1l-2-1-2-1h-5l-2 1h-2l-2-1h-2v3l-1 1-1 1-1-1h-1a60 60 0 0 1-5-4l-2-1h-1l-1-1h-2l-2 1h-3 1v-1l-1-1-1-1v-3h-1l-1 1v1l1 1 1 1v1l-2 1-2-1h-1l-2-1-5 1-5 1-4-2-5-1-3-1h-3l-1 1h-4v-2h1v-2h1l1-1h1l2 1 1-1h-1l-2-1-1-1h-1a174 174 0 0 1-4 3v1l-1 2-1-1h-2l-2-1h-1l-2 1h-6l-1-1h-1v-2h-3v-2h-1l-1 1h-1v-5l-3-1-1 1h-1v1h-1v1l1 1v2l1 2v3l-1 2-1 1-2-1-3-1-1-1-1-2-2-2-2 1-2 2-1 2v1l-2 1-1-1v-3l-1-1-2-1-1-3-2-2-1-2h-1l1-3-1-5-1-1h-3l1 1 1 1v4l1 2 1 1-1 1-2 1h-7v-1l-1-1-1-1h-7v-2l-1-2h-5v2h2l2 1c1 0 1 0 0 0l-1 1h-2l-1-1-1-1c0-1 0-1 0 0v1l-1 1h-6v-7h-1l-1 1h-5l-1-1-2-1h-3l-2-1-1-1-2-1-2-2-2-1a154 154 0 0 1-5-2l-1-1-1-2h-4v-2l-1-2-1-1h-3l-2-2-2-3-1-2-1-1v-1l-1-1-1-1-2-1-2-1-4-3-4-2c-1-1-1-2-3-2l-2-1h-2l-2-2-2-3-2-1-2-2h-5l-1-2c0-2-1-2-2-3h-1v-1l-1-1v-1l-2-1-1-1h-2v-2l-1-1h-1l-2-1-2-1-2-1h-7l-1-1h-1a51 51 0 0 1-1-8l-1-3-2-2-2-2-1-3-1-2-3-1h-1l-1-1 1-2v-5a56 56 0 0 1-2-4l-2-2-1-2v-2l-1-3-1-4-1-2-1-1-2-1h-2v-1l1-2-2-1-1-2-1-1-2-3-1-2-1-3v-6l-1-1-1-2-1-2-1-2-1-1v-8h-1l-2-1-1-2 1-2 1-2v-3l-2-4-1-1h-1l-1-1 2-3 2-4v-2h-1l-1-2v-1l-1-5v-8l-1-3v-2l-1-2 1-2 1-2-1-1-2-2-1-1v-3l1-4 1-1 1 1 1-1-1-1-2-2-1-1v-2l1-6a976 976 0 0 1-1-9l-1-4-1-3v-18a284 284 0 0 0-1-10l1-2a7 7 0 0 0-1-5v-2l1-1 1-2v-1l1-1v-3l-1-5v-2l-1-1-2-1 1-1-1-2v-2l2-2 1-2-1-2v-2l1-2 2-2 1-3-1-3v-5l-1-2-1-3v-3l1-1 1-1v-2l-1-2 1-1 1-3-1-4-1-2-1-2 1-1v-8a13 13 0 0 0 0-6v-3a32 32 0 0 0 0-7l-1-2v-3l1-2-1-3-1-1-1-1-1-1-1-2 1-1h1l1-2v-4l-1-5v-4l1-1 1-2 1-2v-2l-1-1v-1h2l2 1h2l1-1-1-2-1-1-2 1h-2v-3l1-1 1-1v-2l-1-2v-3l1-1 1-1v-3l1-4v-2c0-1 0-2 2-3l2-2v-5l1-5 1-2v-2l1-5 1-5 2-1 2-2 2-3 1-1v-5l1-3a11 11 0 0 0-1-5l-1-2 2-1 2-2v-8l2-3v-3l1-2v-2l1-2v-9l2-2 1-1v-9l1-1 1 1 1 1 1-1v-9l1-1 2-2 2-2-1-2-1-2v-1l1-1v-1l1-1 2-3h1l1-1 1-3v-2l2-1h1v-2l-1-2 2-1 1-1 1-1-1-3-1-1 1-1 2-2v-2l2-3 3-3v-1h-1 2l2-2 3-3 3-3v-3l1-2h2l1-1h1l2-1 1-2 1-2 3-2 2-2v-1l1-2 1-1 2-1 2-1 1-1 3-2 2-2h1l2-1 1-1 2-1 3-2 2-1 4-1 3-2h2l1-1h2l1-1h1c1 0 2 0 3-2a1895 1895 0 0 1 7-4h1v-4h2l3-1 3-2 2-1 1-1h4l2 1 1-1 1-2h1l2-1 1-1h4l1 1 1 1 1-1v-1l-1-2 2-1a25 25 0 0 0 7-1l2-2 2-1h11l2-2 1-1h2a206 206 0 0 1 7 0l1-1 1-1 2-1h2l2-1h3l2 1h1l2-1 3-1 4-1 1-1h3l2-1 2-1 2 1 1-1 2-1 3-1 2-1 1-1v2l1 1 1-1 2-1h10l2-3 2-2 2 1c1 2 2 2 3 2h2l1-2h1l1 1 3 1 4 1h5l3-1h7l2-1 2-1v1l2 3a49 49 0 0 0 4 7l1 3v4l-1 5-3 4-4 3-3 1-1 2h-2l-1-1v-1h-2l-2 1h-7l-2 1-1 1-1 1-1-1-3-2-2-1-2 3-1 2-1-1-1-2-2-1-3 1h-2l-1 1v1l-1 3-2 2-1-1-1-1-3-1-4 1-2 1a8 8 0 0 0 1 4v3l1 1v3l1 3v11l-1 2-1 1 2 2 1 1-1 3v7l1 2v1l1 1v6a145 145 0 0 0 3 23l1 1v2l1 3v4l-1 3v3a105 105 0 0 1 1 9v2l1 2 1 2v2a62 62 0 0 0 1 5l1 1v1l-1 1-1 1-1 1v1l-1 2-1 6-1 5v4l2 5 1 4-1 4v14l1 3v2l1 2v8l2 3 1 1 1 1h-1l-2 1-1 2v9a298 298 0 0 0 2 25v13l-1 1v1l-1 2 1 2 1 1 2 2h-4v3l-1 1 1 2v7l1 6v11l2 2v1l-1 2-1 4v4l-1 2-1 2v2l-1 5 1 5 1 3v2l-1 1-1 3-1 2v2l-1 1 1 3 1 1v3l1 5-1 3v2l-1 1v1l-1 1v10l-1 3 1 3 1 3v3a69 69 0 0 0-2 11l2 2v1l-1 1-1 2v2l-1 3v2l-1 2-1 3 1 2v10l1 2-1 2-1 3-1 3v2l-1 2v4l-1 3v3l1 2v2l1 1h3v2h-3l-1 1-1 1 1 2 1 3-1 3 1 2 2 1 1 1v6l1 2v1l-1-1-2-1-1-1a102 102 0 0 0-1-3l-2 1-1 3v5l-1 4v7l-2 1-2 3-1 3 1 4 1 5-1 3v2l-1 1a89 89 0 0 0-1 6l-1 2v1l-1 2-1 2-1 4-1 5v2l-1 1-1 2v1a13 13 0 0 0-2 4l-1 1-1 1v3l2 3-1 1h-2c-1-1-1-1-3 1l-3 1-1 1h-1l-1 1-1 2-1 1h-3l-3 1h-2a1510 1510 0 0 1-37 2l-2 3-2 2-1 2v-1l-2-2-1-1-1-1h-4a64 64 0 0 1-8-1h-3l-2-2-3-1-1-1-2-1-1-1-2-1-3-2-1-2h-2l-3-1-2-1-3-4-4-4-3-3v-1l-1-2-1-1v-1l-1-3 1-3v-1l-1-1-2-1a14 14 0 0 1-4-5l-1-2-1-1-1-3-1-4-1-3-1-4a175 175 0 0 0-2-13l-2-4-2-4v-5l-1-1-1-2v-3l-1-3-1-3-1-3-2-2-1-1v-1l1-2v-4a184 184 0 0 0-1-13v-4a221 221 0 0 0 0-7v-4l-1-4h-1l1-2 1-3a2329 2329 0 0 0 1-13 87 87 0 0 1-1-9l1-4v-6h-1l-2-1v-10a337 337 0 0 1 1-18l1-4v-6l1-3 1-3 1-1 2-3a244 244 0 0 0 3-6l3-2 2-1 3-2h2l2-1 2-1h1l3 2 1 2h8v1l1 2 2 1 2-1 1-1 1-2 1-2h1l2-1 1-1 1 1 1 1 2 4 2 2h4l1 2v3l1 1v1l1 1v1l-1 3 1 3 1 3v11l-1 3v6l-1 3v3l1 2a34 34 0 0 0 1 6l1 1 2 1v1l-1 2h-2v2l1 2v5l1 6 2 2v4l-2 1-1 1v2l-1 3v3l1 3v2l1 1v3l-1 1v3l1 5a78 78 0 0 0 1 10l2 2-1 2v4l-1 4-1 4 1 4v6l2 1 1 2-1 4 1 3 1 2 3 1 2 1a2114 2114 0 0 1 5 3h2l1-1a210 210 0 0 0 5-4l2 1 2 1 1 1h3l4-2 2-3 2-3 1-3 1-2v-3l-1-2v-2l2-3 1-1 1-2v-2l-1-3a264 264 0 0 0 0-6l1-1 1-3a346 346 0 0 1 3-20v-3l1-4v-3l-1-2v-3l1-5 1-4 1-4-1-3-1-2-2-2v-3l-1-4-1-3v-2l1-3v-12a31 31 0 0 0-1-9l1-3v-4l-1-1v-1l1-1v-5l-1-3 1-5v-5l1-3v-3l1-4v-2l-1-3-1-4-1-2h-1l1-1 2-1v-5l-1-9a13022 13022 0 0 1-4-68v-1l-1-3-2-1-1-2 1-2 2-3 1-2 1-3v-3l1-2 1-1 1-3v-4a264 264 0 0 1-2-24l-2-1v-4h2l1-6a491 491 0 0 0-4-58v-3l-1-4-1-6v-12a1739 1739 0 0 1-2-6l1-4v-4l-1-2v-3l-1-2-1-2 1-2v-8l-1-4h-1l-3 1a20 20 0 0 1-5 2l-2 2-1 2a625 625 0 0 1-43 20v1l1 2-1 1-3 1h-3l-1 2-2 1-2 1-2 1a51 51 0 0 0-4 3l-2 1-2 2-4 3-2 3c0 1 0 1 0 0l-1 1h-1v-1l-1 2c1 1 1 1-1 3l-3 4-2 2-1 2v5l-2 2-2 2-1 1-1 1-1 2v1l-1 2-1 4v2l-2 2-1 3-1 3-2 1v3l-1 3v4l-1 4-1 1-1 4-2 4-2 2 1 1a29 29 0 0 1 3 6v1l-2-1-2-1-2 2-1 4-1 4-1 5v3l-1 3v3l-1 2-1 3v3l-1 3-1 4-1 4-1 1-2 1h-1v3l1 1-2 2-1 2v3l-1 4a84 84 0 0 1-3 8l-1 4 1 4 1 2-3 1h-2l-1 1v2l1 2v5l-1 2 1 2v2c1 1 1 1 0 0h-1v-1h-1l-1 1v7l-1 2 1 2 1 1v2l-1 2-1 3 2 3 1 2h-1l-1 1-1 2v2l1 2 1 1 1 2 1 1v16l1 5-1 5v12a105 105 0 0 1-1 19v11l-3 1-2-1-3-1h-2l-1-1h-1l1 2 4 2 3 1 3 1v1l2 2 1 1-1 2-1 2-1 2 1 3v6l-1 3v20l2 2v8l-1 2v4l-1 2-1 2v1-1l-1-1-2-2-1 1v2l1-1v3l1 3 2-1 3 1 1 5-1 4 2 1 1 2h-1v11l2 1 1 2v2l-1 1-1 1-1 2 1 3 2 3 1 1 1 1-2 1-2 1-1 1 2 3 1 3 1 5v6l1 2v6l2 2v5l1 2 1 2 1 2 3 1h2l1 1 1 1h-5l-1 1-1 2v2l1 1 1 2v3a48 48 0 0 1 2 5l1 2 1 3 1 1 1 2a24 24 0 0 0 4 3l1 2 1 2 1 2 1 2v2l1 3a82 82 0 0 0 3 5l1 2v2l1 3a58 58 0 0 0 4 7l1 1 1 2 2 2 2 1h2a9 9 0 0 1 3 3l2 2 2 2h1l2 1a3271 3271 0 0 1 7 6l1 3 2 1 1-1 3 2a181 181 0 0 0 7 3h3l2-1 1 1 1 1 1 2 1 1h2v6l1 1 2 1 3-1v1l1 2 1 2 2 2 3 1v2h1l2 1 2 1v2h2l1-2v-1l1-1 1 1h1l1 1-1 2v2l1 2a12 12 0 0 1 3 2h3l2 1 2 2 3 1 4 2 3 2h1l2 1 2-1h2l3 2 2 1 4 1 3 2 1-1h2l3 1 2-1 2 1 2 1h2l3-1 2 1 2 2 5 1h6l3 1h3l-1-1h-1l1-2 1-2 1 1v1l1 2 1 1h1l2 1 2-1h3l2 1 1 1v1-1h14l5 1h6l2 1c2 1 3 2 5 1h2v1h3l2-1 1 1 2 2h2l2 1 1-2 2-1h2l3 1 3 1 3 1 2 1h4v1h-2v1l1 2 2 1v2l-1 1 1 2 1 1h2l1-1 1-1-1-1-1-1 1-2 1-1 1-2v-2l1-1a22 22 0 0 1 7 1v1l1-1 1-2h22l1-1h1l1-1v-1l1 1 1 1v-1h1c1 0 1 0 0 0v-1l1-1 1 1 2 1h15l3-1h4l4 1h4l2-1 1-1 2-1 3 1a263 263 0 0 0 8 0h6l1-1 2-1 2 1 1 1 2-1 1-2v-1h1l1 1v1l1 1 1 2v-2l1-2 1 1a3 3 0 0 1 0 3v1h2l1-1v-2l-1-1 1-1v-1h6c1 0 1 0 0 0v1h1l1-1-1-1 1-1h2l2-1h2v-1l1-2h2l3 1h7l3-1h3l2 1h9l1 1 1 1 1 2 1 1v2l1-1v-1h1v-1l1-2a11 11 0 0 0-2-5l-1-1-1-3v-2l2 1 1 2 2 1 1 1h1l1-1 2-1h2l3 1 1 2h1l1-1 1-1h3l2-1h4l1 1 1 1h3l5 1h2l1-1-1-1-1-1h1l1 1 1-2 3-1 1 1h5a166 166 0 0 1 5-1l2-1 1-1 1-1 1-2 1 1 2 1h4l4-1 2-1h7l3-1h5l2-1h1l1-1h1l1-1h5l1 1v-2l2-1 1-1h3l3 1 1 1h2v-1l1-1h1l2-1 3-1 1-1 2-1 2-1 1-1h7l2 1h2l1-1v-2l1-2v-2c0-1 0 0 0 0h2l5 1h4v-1l1 1h2l1-1 2-1h3v-1h1l2-1h5l1 1 1-1v-1h4v-3l1-1h9l2 1 1 1v-1l2-2 1-2h1l2-1h4l2-1 2-1h3l1-1h2l1-1 2-1 1-1 1-2a80 80 0 0 1 2-5l1-1h1l1 1v1h3l1 1 1-1 1-1h2l1-3 2-3h3v-3h1l2-1 2-1 2-1h1l4-3 2-3 1-2 1-1v-1l1-1h1l2-1 2-4 2-2v-1l-1-3 1-1 2 1h2l1-1 1-2 1-1 1-2 1-2 1-2 1-1a13170 13170 0 0 0 5 0l-1-2 1-2v-1h2v-7l1-2 1-2v-1l1-2 2-2v-3l1-4v-11h-1v-2l1 1h1l1-1-1-2-1-2v-4l1 1 1 1 1-1 2-2 1-3 1-2 1-1v-13l1-5v-4l-1-2-1-3 1-1 2-1a33 33 0 0 0 1-8v-3l-1-1v-1l-1-3v-2l2-1 1-2v-5l1-4v-6l1-5a257 257 0 0 0 0-19h1l-1-2-2-4-1-3 1-1 1-1v-9l-1-3-2-2v-2l1-2 1-2 1-1v-1l-1-1-1-2v-1l1-1 1-3v-24l1-4 1-2v-3l-1-1v-1l1-2 1-3v-3l-1-3v-4l1-3 1-3v-1l-1-1-2-2h-2v-1l1-1h1l1-1 1-2-1-1-1-3-1-4v-8a106 106 0 0 1-2-9l1-2v-27l1-3 1-5-1-4v-4l1-3-2-1h-2v-3l-1-3v-1l-1-2v-2l-1-1 1-2 2-1v-2h-1l-1-1v-2l-1-3-1-3v-7l-1-3v-3l-1-2v-4a308 308 0 0 1 0-15l-1-2-1-4v-2a322 322 0 0 1-3-10v-3h1l-1-1h-1l-1-1v-3l-1-4-1-3-2-1-1-1v-1l-1-2-1-2v-7l-1-3-1-4v-4l-1-1-1-2v-6l1-2-1-2-1-2v-2l-1-5-1-4v-2l1-5-1-4-1-1h-1l1-2 1-4v-3a17 17 0 0 1-3-5v-1l1-2v-1l1-4-1-3v-4a25 25 0 0 1 0-7v-2l-1-4v-3l-1-3-1-1v-3l-1-4-1-1v-2l1-2-1-4-1-3-1-4a57 57 0 0 1-4-7l-2-1-2-1-1-1h-1v-3l-1-1-2-2V5l1-1-1-1-1-1V1h-1V0l-2-1v1l-1 1-2-1-2-2-1-1 1-1v-2h-2l-2 1-2-1-4-2-1-1v-3h-1v1l-1-1-2-1h-1l-3-2-2-3-1-1a35 35 0 0 0-5 1l-1-2-2-1-1 1-1 1-1 2-1-2-2-2v-4l-1 1h-4v1h-1c0 1-1 1-1-1l-3-1-3-1-2 1-1 1-1 2-1 2v1l-1 1v-4s0-1 0 0l-2-1v-5l-1-2-1-1-1 1h-4l-2-1h-2l-2-2-1-1-2-1h-2l-5 1-6 1-2-1h-5l-3-1-1-1-2 1h-4v-1l-2 1h-5l-3-1h-2v-1l-2-2-1-1v2l1 1-1 1-2-2-1-2-1 1v4l-1 1-2 1h-6v3h-1v-1l-1-2h-2a673 673 0 0 0-29-2l-3 3-2 2v-1l-1-1-2-1h-6l-3 2h-1l-1 1h-3l-3-1h-5l-2 1h-4l-1-1v1h-1l-1 1h-5l-2-1v-2l-2-1h-1v3l-1 1-2 1-1 1-2-2-1-1-1 1-1 1h-1l-1-1-2 1-1 2h-8l-3 1-3 2-2-1-1-1-3-1h-4l-1 1v3h-1l-3-2-3-3h-1l-1-2v-1h-1l-1 1-2 2-1 2h-2l-1 1h-1c-1 0-2 0-4 3l-3 3-1-1a276 276 0 0 0-4-4l-3 3-2 2v2l1 1-2-1-1-2h-2l-3 1h-5a74 74 0 0 0-8 0l-2-1-3-2H8l-3-1H3l-1 1v1l-2-1v-1h-1v-2h-2l-3 1h-1v-3c-1-1-1-2-2-1h-4l-2-2v-1h-1l-1 2-1 1h-14l-2-1-2-1-3 1-2 1h-5l-3-1h-1l-1-1-3-1-2 1-1 1-1-2-1-1v1l-2 1h-2l-1-1-1 1v-1l2-1 2-2-1-1h-6v-2l-1-5v-2l-2-1v2l-1 3-1 2v4l-1 4-1 1h-2l-2-1h-3l-2-1-1 1-1 2h-3l-1 1-1 1-1-1-2-2h-3v-3l-1-1h-1v1a2980 2980 0 0 0-3 3l-1-2v-2l-1 1v3l-3 1a30 30 0 0 0-3 0l-1 1-1 2h-2v-1l-1-2-1-2h-2l-1 2-1 2h-11l-1-1-1-1-1 2v2l-2 1-2-1-1-1v-2h-1v-1h-1c0 1 0 1 0 0h-1l1 1v1l-1 2h-4l-1-1h-1l-1-1-1-2-1-1v3l-2 1-2-1h-3l-2 1-3-1-4-1h-1l-1-1-1-1-1 1 1 1h-1v4l-1-1-1-2h-2l-2-1-4-1h-3v1l-2 2-1-1-1-1v-1 1l-1 1c1 0 0 0 0 0h1l-1 1-2 1h-3l-6-1h-4l-1 1-2 1-2 3v1l-2 1-3 1-2-1-1-1h-1l-2-1-1-2-1-2-2-2-1-1h-2l-1-2-1 1-1 1 1 1 1 2v2l-1-1-2 1-1 1h-2c0-1 0-1 0 0l-1 2v2h-1l-1 1h-2l-2-1-1-1-1-1-1 1-2 2-1 1-1-1v-1l-2-3-3-3v-2l1-3-1-1-1-2v-2l-1-2-1-2 1-2v-3h6v-4l-1-2 1-4 2-1 1 1v-1l-1-1s0-1 0 0h-1l-1-2-1-3v-3l2-1h3l2 1 1 2 1 1v2l-1 2-1 2 1 1 1 1 2-1 2-1v-1l-1-2h4l1-1-1-1h-1v-3h1l1-1v-1h3l1 2 2 1v1l1 1h1v1h1l1-1 1 1 1 1 3 1h2l2 2v1h-3l-1 2 1 2 1 1 1 1v-2l3-1h4l2 1h1l1 1h1l1 1h1l2 1c1 0 1 0 0 0l-1-3-2-2-1 1-1 1-2-2v-3h3a122 122 0 0 1 16 1l1-2 2-2 2 2 2 1 1-1h3l3-1h3l4 1 2 1v-4l1-1 2 1v1h2l2 1h1l1-1 2 1 1 1 1 1 1 1v-2l1-1h4l1 1 1 1h-1l-1 1v1l1 1h1l1-2v-1l2-1h6l2-1 6-1h10l3-1h5l3-1h5l1 1v-1l2-1 2-1h4l1 1v3l1 2 2 1 1-1v-4l1-1h2l1 1 1 1h2l1-1 5-1a8503 8503 0 0 1 11 1l1 1 3 1h9l3-1h1l-1 1 1 1h2l1-2 3-1 2 1v2h4l2 1 3-1 1-2 1-2 1-2h1v2a6 6 0 0 0 2 4h3l1-1h2l2 1h3v2l1 1 1 1 1-1v-1l1-1 2-1 1 1 1 1 2-1 1-1 1 1 2 2h4l1 1h1l2 1h2l1-1 2-1 2-1h1l3 3a27 27 0 0 1 6 4v-3l4-1h3l1 2 1-1v-1l1-1 3-1 4-1 2-2 3-1h2l1-1 1 1 1-1 1-2-1-1h-1l2-1 2 1 1 1h2l1-1h1l1 1 1 3 1 2h1l1 1h1l1-1-1-1h-1l-1-2h6l1 1 2 1h8a3 3 0 0 0 1-3v-4l1 1 1 2 1 2h2l3 2h2l2 1 1 2v3h5l1-2a163 163 0 0 0 0-4l1-2v-1h7l4-1h4l3-1h3l1-1h2l2-1h3v3l1 2 1 1 1 1h8l1-2h-1l-2 1h-4l-3-1 1-1v-1l-1-2 1-1h3l5-1 4-1 2-1 1-1h3l1 1 1 1a129 129 0 0 0 3-5v2l2 2h3l2-1h5l1 1 1 1 1-1h5l4 1 2-1h3l2 1 4-1h7l1-1h1l1-1 1-1h1v4l1 1 3-2 2-2 1 1v3l1-1h4l2 1 2-1 2-1 3-1 1-1h1l1 1v1l3 1h1l2-1 2 1h5l3 1h3l1-1 1-2 1 1v2l1 1 1 1h1l1-2-1-1 1-2 1-1v3l1 3 1 1 2 1 3-1h2a17 17 0 0 0 5 2l2 1 2 2h1l1 1 4 1 2-1 3-2 1-1v1l1 2 1 1h7l2-1h2l2 1v3h2l4 1 3 1 2 1 1 1 2 2 2 1 2 1 1 2v1h1l2-1 1 1 1 3 1 1 1 2h5l2 1 1 2v2l-1 1h3l1 2 2 1 2 1 2-1 1 1 2 2 2 1h1l1-1 1 2v3l-1 1v5l2 1h1l1-1 1-1h1v3l-1 2 1 2 3 4 2 4 1 2 1 2a101 101 0 0 1 4 8 22 22 0 0 0 1 7l1 1v2l1 3 1 2-1 4v3l2 4v4l1 4v3l1 2 1 3 1 2v5l1 3-1 3v4l1 3 1 2-1 1-1 1v10l-1 2 2 1 1 3-1 2a139 139 0 0 0-2 3l1 2v5l1 2 2 2v12l1 3v2l1 3a19 19 0 0 0 1 4l1 2-1 2 2 2 1 4 2 3v5l1 1v1l1 2 1 1 1 3v3l2 2 1 2 1 1-1 3-1 3 1 2 1 1v6l1 5v3l2 3v3l1 2 1 3v3l-2 2v3l1 1v1l1 4v4l1 4 1 7v6l1 2v9a1055 1055 0 0 0 3 5v4l-1 3 1 3-1 2v3l2 2v2l-1 3a137 137 0 0 1-2 14v8l1 1 1 2a140 140 0 0 0 0 11 70 70 0 0 0 2 12l-1 1v3a14 14 0 0 0 2 4v2l1 2-1 1v2l1 1-1 1-2 2 1 3v5l-1 1-1 3-1 3a32 32 0 0 0 2 9h-1l-2 1v1l2 1 1 1 1 1-1 2v2l1 2 1 1-1 1-1-1-1-1-1 1v12l-1 4v2l1 2 1 2h1l-1 1-1 3v3l1 2 1 3-1 3-1 1-1 1 1 3 1 5 1 5v2l1 1-1 3-1 4v2l2 2 1 2-1 1a4 4 0 0 1-1 3l-1 1v6a11 11 0 0 1 1 5v4l-1 4v6l1 4v2h-1l-2 2v7a119 119 0 0 1-1 9l-1 3-1 4v5l-1 6v6h-1l-1 2-1 2 1 2v3l-1 2v2l1 2v1l-1 2-1 1v2c0 2 0 2-2 3l-2 2a13 13 0 0 0 3 6v1l-2 1-2 1v8h-3v4l-1 4-1 2-1 1v1c-1-1-1 0-1 1l-1 2-2 3-2 1-3 2-2 4v3l1 1h-4l-1 1v1l-1 2v3l-1 4-1 1-1-1-1-1-1-1v1l-1 1a80 80 0 0 1-6 7h-2l-2 1v3l-1 2-1 3-2 3a22 22 0 0 1-3 1l-5 4a25 25 0 0 0-4 5l-3 2-3 1-2-1h-1v3l-1 1h-1l-1 1-2 1h-2l-1 1-2 1h-4v1l-1 1h-1l-1-1-2 1v1l-1 2-2 1h-1l-1 1-2 1-2 1h-1l-1-1-1 1v2l-2 2-2 1-1-1v-2c1-1 1-1-1-1l-1-1v1l-1 2-2 2-1 1-1 1h-5v1l-1 1v1l-2 2-2 1-2-1-1-1h-1l-1-1h-1l-1-1-2 1-1 1v2h-3a93 93 0 0 1-5-1l-2 1h-2l-2 1-3 3-1 1v2l-1-1-1-1-1-1h-1v1h-1l-1 1-2 1-1 1h-1v1h-4l-3 1-1 2v2h-1l-2-1-1-1h-1v4l1 2h-1l-3-1-2-2h-1l-3 1h-2l-2-1-1 1-1 1h-3l-3-1-1 1h-1l-2 1v-1h-1v3h-7l-2-1-3 1-3 2v1h-1v1h-1l-2-1-1-2-1-1h-1l-1 3v1l-1 1-3-1-1-2h-1v2l-2 1-1 2-1 1-1-1-2-1-3-1-3 1h-3l-4 1h-3v1l-1 1-2 1v-1h-3l-1 1h-1l-1-2v-3l-1-1-1-1h-1v1l-1 2v2h-9l-1-2-1-2h-1l-1 1v2l1 2v2l-1 1-2-2-1-1-1-1h-1l-2 2-3 1-3 1h-1l-2 1-1-1h-3l-3-1-1-1v-3l-1-3 1-2v-2l-1-1h-5v4l-1 1-1 1 1 1 1 1 2 1 2 1v1l1 2v7l-1-1-2-2-1-1h-5v-6l-1 1v2l-2 1 1 1h1l-3 1h-4l-3 1h-4l-3-1h-2v-1l-1 1v1l-1 1-1 1v-1l-1 1-1 1h-1l-1 1-1-1-2-2h-5v1h1l-1 1-2 1-2-1a97 97 0 0 0-2-2l-1-1v-1h-1l-1 2 1 1 1 1-1 1a13 13 0 0 1-6 2l-2 1h-2l-1-1-1 2-3 1-1-1-1-1h-2l-2 1h-1l-2-1-1-1h-5l-2 1v2l-1 2h-1l-2-1-1-1-1 1v2l-4 1-4-1-2-2h-4l-2 1h-8l-2-1-1 1v2l-2 1-1-1-4-1h-3l-1 1-1 1-1-1-2 1-1 2h-1a288 288 0 0 0-3-2l-2 1h-1l-2-1-1-1h-1v9h-2zm-29-13s1 0 0 0zm-1-1c1 0 1 0 0 0zm31 0v-1l1-1v-1l1-1-1-1h-1l-1-1h-2l-2-1h-3l1 1 1 1 1 1 1 2 1 1 1 1h2zm6-2 1-1v-1h-4l-1 1h1l1 1v1l1 1h1v-2zm-15-1v-1l-1-1v-1l-1-1-1-1-1-1-2-1-1 1-2 1v3h5l1 1 1 1 1 1 1-1zm-63-1v-2h-1l-1-1h1l-1-1-1 1v2l1 2h1l1-1zm-15 0v-1l-1 1h1zm110 0 1-1 1-1-1-1-2-1h-1v1l1 2v1h1zm-78-2h3l1 1 1-1v-2l-1-1-1-1-1-1v2h-1l-1 1c0 1 0 1 0 0l-1-1-1-1 1-1v-1l1-1v-1l1-2a270 270 0 0 0 2-4l1-1 1-1-1-1-1-2-1 1h-2l-2 1-3 2-1 1-2 1h-2l-1-1-1-1-1-1h-2v3l2 1 3 2 2 3 1 1h3v-1l-2-1-1-1v-3h1l3 2c1 2 2 2 1 3v2l-1 2v1l1 1v2s-1 0 0 0h1l1-1zm64 1v-1h-1v2l1-1zm-96 0c1 0 1 0 0 0zm41-2 1-1h-2l-1 2h1l1-1zm13 0v-4h-1l-1-1-1 2v3l1 1 2-1zm66-1 1-3v-3l-1-1h-2v2l1 1-1 3v2-1l1 1v1h1v-2zm-116 1zm41-2v-2l-1-1-1 2 1 2 1 1v-2zm132-1-1-1-2-1a872 872 0 0 0 3 2zm-7 0-1-2-1-1h-1v3h3zm-90-2v-2l-1-1-1 1v3l1 1 1-2zm106 0v-2l1-2v1h1l1 1-1-2v-1l-1-2h-4l-2-1h-1l-1-1h-2v2l1 1 1 1 1 2 1 2 1 2h2l2-1zm-202 0h-1 1zm101-1-1 1h1v-1zm0-1v1-1zm88 0v-2h1l1-1h-1l-1-1h-2l-3-1h-1l-1 1v2h3l2 1 1 1v1l1-1zm-6-3h1v1l-1-1zm45 3-1-1v-2h-2l-1-1v2l1 2h3zm-222-1v-3l-1-1-1-1-1 2 1 3 1 1 1-1zm17 0h2l2-1v-3l-1-4v-1l-1-1-1 1-2 1v3l-1 2v4l2-1zm79 0zm-119-2-1-1-2-1-1 1v2h2l2-1zm134 1zm-1-2h-1v-1h-3l1 1h2v1l1-1zm47 0v-1l-1 1h1zm-98-2v-2h-1l-1 1v1l1 1 1-1zm-108 0v-1l-1 1h1zm2-1h-1v1h1v-1zm36 0 1-2v-1l-1-1h-2l-1 1a4 4 0 0 0 1 3h2zm322-1v-1l-1-1v3l1-1zm-351-1v-1l-1-1-1-2-1-1v-1l-1-1h-1l-1 1v4l1 1 1 1 2 1 2-1zm246 0v-4h-1l-2 1-1 1v2h1l1 1h1l1-1zm-204 0 1-1a17 17 0 0 0 1-7h-1l-3 1h-2v4l1 3 1 1 2-1zm-57 0 2-1h1l1-2v-1l-1-1-1-2a99 99 0 0 0 0-8h-4l-1 1-2 1h-1l-1 2v1l1 1v1h1l2-1h1v4h-2v1l1 2 1 2h2zm248-1v-2h-1l-1-1-1-1-1 1v1h1v1l1 1 1 1 1-1zm-179 1v-1 1zm1-1c0-1 0 0 0 0zm261-1 1-1 1-1-1-2-1-1v1l-1 1v4h1v-1zm12 0v-4h-4l-1 1 2 1 1 2h2zm-75-3-1-1-1 1 1 1 1-1zm94 0v-1 1zm-373-1 1-1-1-1h-2l-2 1h1l1 1h2zm336-1-1-2-1-2-1-2h-1l-1 2 1 1 2 2 1 2h1v-1zm-57 0h-1v1l1-1zm15-1-1-2-1-1-1 1 1 1 1 2v1l1-2zm81 0v-3l-1-1h-2l-1 2 1 2 1 1 1 1h1zm-29 0v-1l-1 1h1zm-3-2v-1h-3v-2l-1-2h-1l-2-1h-3l1 2 2 2 2 1 1 1 1 1h1l1-1 1-1v2-1zm-4-1zm12 1-1-2-1 1 1 1h1zm-330-1v-2h-2v1l1 1h1zm289-2v-1h-1l-2-1v3h1l2-1zm122-12 1-1v-1l-2-1h-2l-1 1v1h1l1 1h2zm51-2 1-3 1-2-2-2h-2v1l-1 1-1 1h1l1 3v2h1l1-1zm-7 0v-3l-1-2v-1l-1-1v2l-1 1v1l1 2 1 1h1zm-17-1v-1l-1-2h-1l-1 1v2h3zm27-2h-1v1l1 1v-2zm-54 1zm-486-2v-1l-1-1h-1v2l1 1h1v-1zm11-2v-1l-1 1-1 1v1l1-1 1-1zm490 0-1-2-1-1h-1v3l1 1 1 1 1-2zm-492-1h1v-1l-1-1-1 1-1 2h1l1-1zm-17-3 1-1-1-1v-4l1-1v-4l-2-1h-2l-2 1-1 2v7l1 1h1v-1h1l1-1-1 1v2l1 1 2-1zm505-1 1-1v-2h-1l-3 1-1 2 2 1h1l1-1zm23 0v-1l-1-1v3l1-1zm-10-2-1-1v-1h-1c0-1 0-1 0 0l1 1 1 1zm13-2v1-1zm2-4-1-1v2l1-1zm1-2c0-1 0-1 0 0zm20-2 1-1-1-1-2-1v3h2zm44-5-1-1c0-1 0-1 0 0v1h1zm2-3v-2l-1-1-1 1v2h2zm-1-7v-1l1-1-1-1-1-2h-1l-1 1-1 2 2 1 1 1h1zm30-28a10 10 0 0 0 0-3h-1v3l1 1v-1zm-15-2v-1 1zm26-7-1-3v-1l-1 1v4h1l1-1zm-17-4v1-1zm-685-1 1-1-1-2-1-2-2-1-1 1v2l1 1v1l1 1h2zm3-9h-1v1l1-1zm-13-3c0-1 0-1 0 0v1-1zm4-1v-3h-3a11 11 0 0 0 1 4h1l1-1zm715-10v-1 1zm2-1h-1v1l1-1zm17-1c0-1 0 0 0 0v1-1zm-750-23h-1c0-1 0-1 0 0h-1l1 1 1-1zm753-25h1l-1-1-1-1h-1v3h1l1-1zm-743-48-1-1h-1v1h2zm738-3v-1h-2l-1 1 1 1 1 1 1-2zm18-14c-1 0-1 0 0 0 0 1 0 1 0 0zm-773-1h-1 1zm750-14-1-1-1 1h2zm0-11v-2l-1-1v-1l-1 2-1 2h1l2 1v-1zm-1-9h1v-2l-1-1h-1v4h1v-1zm6-4-1-1v1h1zm0-2h-1v1l1-1zm-3-8v-3 1h-2l-1 1v1h3zm-548-40-1-1h-1v1h1l1 1v-1zm554-3v-2l-1-1v-1h-1l-1 1s0 1 0 0h-1v1l1 1v2h2l1-1zm-5-5c1 0 1 0 0 0zm1-6v-1 1zm17-29h-1 1zm-591-2zm-1-2zm579-11h-1v1l1-1zm-761-5v-1l-2-2-2-1h-1l1 2 3 2h1c0 1 0 1 0 0zm758 0h-1 1zm-3-3zm-749-3-1-1-1-1v2h2zm750 0s0-1 0 0h-1 1zm-758-1h-1 1zm758-2v-2l-1 1-1 1 1 1 1-1zm-759-11s1 0 0 0zm761-17-1-1-1 1v-2c0-2 0-3-1-2v4h3zm-587-8v-4l-1 1-1 1 1 1v1h1zm-146-12h-1 1zm741-20-1-1v1h1zm-23-7c0-1 0 0 0 0 1 0 1 0 0 0zm23-7h-1 1zm-556-31-1-1 1 1v1-1zm525-18c0-1 0 0 0 0zm1-3-1-2-1 1v1l1 1v1l1-2zm-677 0v-1 1zm-24-1zm695-68v1-1zm-11-4v-1l1-1h-1l-1 1h-1l1 1v1l1-1zm25-1-1-1-1 1 1 1v1l1-2zm-23-2h-1v1h1v-1zm9-18h-1v1l1-1zm-569-6h-1v1c-1 0-1 0 0 0h1v-1zm-40-1v1-1zm75-4v-2l-1-1-1 1v1l1 2h1v-1zm519-5s0 1 0 0zm-439-1zm-99-1v-1l-2-1h-2l1 1 2 1h1zm99-5v-1l-1-1-1-1v2h1v1h1zm-88-3-1-1h-1l1 2 1-1zm57-4v-2l-1-1-1 1-1 2 1 1 1 1 1-2zm-45 1v1-1zm62-1h-1c0-1 0 0 0 0v1l1-1zm1 0v-1 1zM336 2V0h1l2-1v-1h-2v1h-1l-1 1v1l1 1v1-1zm-11-5v-1 2-1zm5-1 1-2-1-2-1-1-1 1v2a241 241 0 0 0 2 2zm7-3v-4l-2 1-1 2v1h3zm-19-3h1l1-2-1-1h-1l-1 2v2l1-1zm3-4v-1l-1 1h1zm-7-3 1-1v-1h-3l-1 2h3zM24-18v-2l-1-2-1-1h-1l-1 2 1 1h1v1l1 1h1zm303-1v1-1zm2-1h-2l1 1h1v-1zm-22 0h2v-1h-3c-1 0-1 0 0 0l-1 1h2zM32-23v1-1zm-239-1 2-1v-3l-1-1-2-2h-3l-1 1-1 3 2 2 2 2 2-1zm238 0s0 1 0 0zm1-1h-1v1l1-1zm-22 0-1-1H8v1h2zm25 0v-2l-1 1v1h1zm-256-1h3v-3a270 270 0 0 1-1-11l-2-1h-3l-1 2v1l-1 1-2-1-1-2-1-1-2-1-2-2-2-1-1-1h-5l-2-1-3-1v3l2 2 2 1 2 1h4l1 2 1 4 1 2v2l2 1 3 1 2 2c2 2 2 2 3 1h3zm55-1v-2l-1-1-1 2v2h1l1-1zm2 0zm-35 0 1-5v-4l-1-1-2-2-1-2-2-2h-1l-2 1-2-1h-5l1 2v2h-1l-1 1v1h1l2 1h1l2 2 2 1 1-1h3v1l1 3 1 1v1l1 1h1zm-6-11h-2l-1-1 1-1 1 1h1v1l1 1-1-1zm66 10-1 1h1v-1zM7-27zm-248-1s0 1 0 0zm154 0v-2l1-1v-5h2v-1l-3-1h-2v9l1 1h1zm-44-1v-3l-1 1-1 1v1l1 1 1-1zm84 0 1-1-1-2h-1l-1 2 1 1v1l1-1zm12 0 1-2 1-2 1-1-1-1v-2h-1v1l-1 1h-3v5l1 1h1v1l1-1zm23 1v-1l-1 1h1zm296-1-1-1h-1v1l1 1 1-1zM7-31v-1H4l-1-1v-2H2l-2 2-1 1-2-1h-1l-1 1 1 2 2 1 1-1 1-1h2l2 2 1 1v-1l2-2zm19 2v-1h-1v1l1 1v-1zm-35-1 1-1 1-1v-3a251 251 0 0 1-2-7v1l-1 2v4l-1 2-1 2 1 2h1l1-1zm24 0 2-1 2 1-1-2-2-2v1l-1 1-1 1v2h1v-1zm-204-1v-2h-1l-1-1-1-1v-1l1-3-1-3-1-1v1l-1 2-1 1-2 1 1 1 2 2a952 952 0 0 1 5 4zm64 1h-1 1zm11 0v-1l-1-1-2-1v1l1 1 1 1h1zm85 0h-1 1zm-48 0v-2l1-2v-1l-2-1a68 68 0 0 0-5 0v1h1v2l1 1 1 1 2 1h1zm-1-2v-1 1zm386 2 1-1h-3l-1 1h3zm-32-3h1v-1h-3l-1 3 1 1 1-1 1-2zm-451 1v-2l-1-2h-3l1 2 1 2 1 1 1-1zm72-2 1-1 1-1v-2l2-1 2 1h2l1-1h1l2 1 2-1v-1h1v-1l-2-1-2 1-1 1h-1l-2-1-1-2-1-1h-4l-1 2v2l-1 1-1 3-2 3 1 1v1l1-1 2-2zm5-5s0-1 0 0zm39 8h-1 1zm374-1v-3h-1v-1l-1 1v2l1 1v1l1-1zm-4-2v-2h-2l-1 2v1l1 1 2-2zm-366 0h-2v1h2v-1zm96 1v-1 1c1 0 1 0 0 0zm7 0v-2h-1v-1l-1-1-2-1v-1h-1v2l3 2 2 2zm92 0v-1l-1-1v1h-1l-1 1h3zm-44-2 1-2v-2h-1l-2 1h-1l1 1 1 2v1h1v-1zm-237 1zm174 0-1-1v1c-1 0-1 0 0 0h1zm220 0v-1h-1v1h1zM71-34v-2l1-1-1-1-2 1h-2l1 1h1v2h2zm115-1v-1l-1 1v1h1v-1zm-355 0 1-1v-2l-1-1-1-3-1-1-1-1v-1h3v-1l-1-1-2-2h-2v1l1 1 1 2h-1v8l2 2h2zm74 0zm79 0h-1l-1-2-2-1h-1l1 1 1 2h3zm12 0v-1c-1 0-1 0 0 0v-1h-1v2h1zm-91 0v-1l-1 1h1zm1 0v-1l-1-1v1s1 0 0 0v1h1zm117-1 1-1v-1l-1 1v2-1zm131 1-1-1v1h1zm-290-1h2v-2h-1l-1-1h-1v4l1-1zm-1-2h1v1l-1-1zm289 2h-1 1zm118 0c0-1 0-1 0 0zm-117 0v-1 1zm41-2v-4l-1 1-1 2 1 2 1 1v-2zm30 1v1-1zm-371-3-1-2-1-1v-2l-1-2-1 1-1 2v6l2 1h2l1-3zm198 2 2-2h2v-2h-3l-2 1-2 1v1l-1 1-1 1h4zm-156 0h-1v1l1-1zm198 0v-2l-1-1h-1v2l1 1h1zm188 0zM89-39l-1-3h-1l-1 1v1l1 1v1h2v-1zm69 1v-4h-1v3l1 1zm34-1-1 1 1-1zM76-39v-2l2 1 1 1v-7l1-3-1-1-1 1h-2l-1 2v2l1 1v1l-1 1-1 1h-1l1 2h2zm-259 0a119 119 0 0 1 0-2l-1 1v1h1zm7 0c0-1 0 0 0 0zm137 0-1-1v1h1zm-138-1v-1h-1l-1-1-2 1v1l1 1h1l2-1zm366 0 1-1-2-1h-1v3h1l1-1zm-316 0v-2l-1-1h-1l-1 1 1 2h2zm301 0v-1l-1-1h-2l-1 1 2 1h2zm68 0-1-1h-1v1h2zm-282 0h-1 1zm-127-1v-2l-1-1v4h1v-1zm132-1-1-2-1-1h-1v2l1 2 1 1 1-2zm-103 0v-1l-1 1v1h1v-1zm247 1h-1 1zm119-1v-1 1l-1 1 1-1zM-3-41h-1 1zm154-1 1-1v-3l-1-1h-1v5h-1l1 1 1-1zm-369 0h1l1-1-1-1a250 250 0 0 0-3-2l-1 2 1 2 1 1 1-1zm468 0c0-1 0-1 0 0h-1 1zm-479 0-1-1v1h1zm73-2-2-1h-2v2l2 1h1l1-1v-1zm380 1v-1h-1l-1 1 1 1 1-1zm-413 0v-3l-1-1v4h1zm102-2v-3l-2-1c0-1 0-1 0 0v2l1 3 1 1v-2zm33 0-1-1-1-1-2 1v1l1-1 1 1 1 1v1h1v-2zm202 1v-1h-3l1 1 1 1 1-1zm-77 0-1-1-1-1-1-1-1-1v1l1 2 1 1v1l2-1zm-25-1 1-2h-2v3h1v-1zm-166 1v-1l-2-1v1l2 1zm347-1 1-2v-1h-2l-1 1v2l1 1 1-1zm2 0c-1 0 0 0 0 0 0 1 0 1 0 0zm-120-1v-1h-1c-1 0-1 0 0 0v2l1-1zm50 1v-1h-3l-1 1h4zm-223-1v-3l-1 1-1 1 1 1h1zm203 0v-1 1zm41-1h-1l1 1v-1zm21-1v-1h-1l-1 1 1 1 1 1v-2zm-396 1v-1l-1-1-1 1 1 1h1zm175-1h-1v-3l-1 1-2 1v1h4zm-63-1v1-1zm58 1v-1l-1 1h1zm234-2-1-1v1l1 1v-1zM70-50s0 1 0 0zm103 0 1-3v-3h-1l-1 3v3l1 1v-1zm-270 0h1v-2l-2-2-1 1v2l1 1h1zm4-2s0-1 0 0h-1v2h1v-2zm303 1v-1l-1-1-1 1v1h1l1 1v-1zm23-1 1-2 1-1c1 0 1 0 0 0h-1l-1 1-2 1-1-1h-1l-1 1v1l2 1h3v-1zm-87 0v1-1zm-84 0v-2l-1-1-1 1v2h2zm-178 0v-1l-1 1h1zm42-1-1-1-1 1v1h1l1-1zm0-1zm267-2v-2l-1-2a324 324 0 0 1-4 1v2l2 2h2l1-1zm-3-2h1-1zm59 3v-1h-2v1h2zm-481-2v-1h-2l1 1 1 1v-1zm431-1-1-2h-2l1 1 1 1v1l1-1zm51 0v-1l-1 1h1zm-78-2 1-1h-3v1l1 1 1-1zm13-1h-1l1 1v-1zM-36 727zm-119-14zm255-7h1v1l-1-1zm18-3v-1 1zm-81-20c-1 0-1 0 0 0zm240-7 1-1 1 1h-2zm-34-30v-1l1 1h-1zm-147-3h-1l-2-1-2-1h-6a434 434 0 0 1-18-2l-4-2-3-2-1-1-1-1-1-1-1 1-1 1-2 1h-2l-1-1-1-2v-1h2l1-1h2v-1l-1-3-2-3-1-4v-4h-1l-1 1v-3l1-2-1-2-2-2v-1l-1-1-1-3v-3l-1-2-1-2v-2l-1-2v-2l-1-2-1-2v-7l-1-2a106 106 0 0 0-3-10l-1-4-1-4a238 238 0 0 0-7-14l-1-4-2-5-1-4-1-2-1-2v-6l-2-4-1-4v-2l-1-2 1-2 1-3-1-2-1-1 1-2v-1a24 24 0 0 0-2-10l-2-2v-1h1v-1a63 63 0 0 0-2-7 574 574 0 0 1-6-26l-1-1v-9l-1-3-1-2v-4l-1-3v-2l-1-4-2-4a44 44 0 0 0-1-7l-1-4a142 142 0 0 0-1-13v-9a332 332 0 0 1-2-17h-1l1-1 2-2-1-3v-6l-1-3-2-3-2-1h-1l-1 2a563 563 0 0 0-1 3l-2 1-2 1-4 1h-3l1-2h1l2-1v-2l1-2 1-2 1-2-1-2h-1v1l-1 4-1 2h-7l-2-2-4-1h-1v-2h-2l-1 1v4l-1 3 1 3v16l-1 7-1 6v10l-2 5a53 53 0 0 1-1 8l1 1v5l1 5v3l-1 3v18l-1 2v4l-1 2v7l-1 7-1 2v2l-1 3v6h2v-1h1v2a1363 1363 0 0 0 0 51l1 1v4l-1 6v1l1 2 2 1h1l-1 1h-2v3c0 3 0 3 2 4l3 1 3 1 2 1h2l1 1h1l-1 1h-7a12 12 0 0 0-3 3l-1 1v3l-2 1-2 1v2l1 2 1 5v4l1 3v1l-1-1h-1a4 4 0 0 0-3 0h-1v2l1 2 2 2v6l-1 2-1 2-1 1h-2l-1 2v1l-1 1v2h3v3l-1 1 1 2v2l-1 4-1 2-1 1 1 2v2l-1 2-2 1h-2l-1 1-2 2v1l-1-2c1 0 0 0 0 0h-2l-1 1h-1l-1 2v3h-1l-1-2-2-1-2 1h-6l-2 1h-2l-1 1v2l-1 2 1 1h-1l-1-1v-3l-1-2-3-1h-2l-2-3-2-2-1-2 1-2v-4l-1-2a41 41 0 0 0-1-8v-3l1-2v-3l-1-3-1-1-1-1h-1l1-2 1-4v-2l-1-2v-1l-1-5v-5l-1-1v-1l1-2 1-4 1-4v-2l-1-2 1-5-1-4v-7l1-4v-5l1-4v-5a190 190 0 0 1 0-17v-4l-1-4-1-5v-1l1-1 1-1v-4a113 113 0 0 1 0-15v-3a91 91 0 0 1 3-18l-1-3-1-4v-2l1-3 1-2v-8a418 418 0 0 0 1-19l1-3-1-2-2-3a13 13 0 0 1 0-7 132 132 0 0 1 1-5h-2l-1-1v-1l2-2 1-4a394 394 0 0 0 2-29l-2-2-1-2v-1l1 1 2 1 1-1 1-3v-8l1-3 1-3v-2l-1-3-1-2v-3h3l1-1-1-2a12 12 0 0 0-2-3v-1l-1-2 1-1 2-3 1-4a42 42 0 0 1 1-9l1-5v-19l-1-3-1-2 1-1 2-1 1-4v-5l1-5a222 222 0 0 0 0-19l1-9 1-8v-7l1-1h1l1-1v-3l-1-3v-2l1-2v-2l1-2 1-4v-4l1-7 1-6v-11l-1-1-1-1 1-1 2-1v-4a100 100 0 0 0 1-9l1-3v-8l-1-1 1-1 1-2 1-4v-5l2-1 1-1 1-2 1-2v-7l1-7a35 35 0 0 1 2-4l1-6a272 272 0 0 0 1-9l2-1 1-2 1-4v-3h-1l-1-1v-9h3l4-1 1-1 1-1 1-1h5l5 1 2 1 3 2h3l4-1 3-2 3 1h2l3 1 3 2h2l1-1v-1h1v2l1 2 1 1v2l-1 2 1 2 1 1h1v-2l1-2h1l2 2 2 1 1 1 2 1 2 1 2 1 3 2a224 224 0 0 1 8 7l2 2 3 2 3 2c1 1 1 2 2 1h3v2h-1v2l3 3 2 3 4 3 4 4 2 2 1 2v1l1 2 3 3a127 127 0 0 1 6 7l2 2 2 2 1 2 1 2 2 1 1 2 1 1 2 1-1 2v1l1 2 2 2 1 1v1l-1 4 1 5 1 4 1 1h1l1 1h2v1h-5l-1 1v12l-1 2-1 4a203 203 0 0 0-1 11l-1 2-1 1v2l1 2-1 1v5l-2 1-1 1 1 2v2l-1 5a121 121 0 0 1-1 13v1l1 3v3l1 2-1 2a6 6 0 0 0 1 4l-1 2-1 1-1 1-1 2-1 2-1 1-1 4v6l1 2v2h-1l-2-1-2 1-2 1-1 2v2l-1 3-2 2-1 2-1 2-2 2-2 3-1 2-3 2-2 2-1 2-2 2-2 2h-1l-1 1-1 1-1 1h-2l-2 1v7l1 2 1 1 1 1-2 2-1 1 3 2 2 4v2l1 2v2l1 3 1 2 1 1 1 3 1 4 1 3 1 2 1 4v4l1 3 1 1-1 3-1 3 1 2v4l1 2-1 2v2a19 19 0 0 0 2 7l1 2v3a75 75 0 0 0 2 5l-1 2-1 2 2 1 1 1 1 3a15 15 0 0 0 2 5l1 1 1 1-1 2-1 2 1 2 1 1v2a13 13 0 0 0 2 6l1 2 1 1v4l1 4 1 3v4l2 3a31 31 0 0 1 4 4l1 2v2l1 1-1 2v2l1 3 1 2 1 1v1l-1 1 1 4v5l1 5 1 2 1 2v2l2 3c1 1 1 2 3 2l1 1v3l-1 3-1 2 2 2 1 2 1 3 2 4v2l1 1h2v5l1 2v5l1 5v4l2 1 3 1h1l1 1h-1l-1 1-1 1 1 2 2 1h1l1-1v-1l2 1 2 1 2 1h1l1 2 1 2-1 1v1a11 11 0 0 0 1 3v2l1 2h1v3l-2 2-1-1-1 1-2 1h-2l1-1a192 192 0 0 0-1-5v-2l-1 1v3l-1 1-1 1-1 1 1 1 1 1v3l-2 2v1l-1 1v2l1 2h-2l-1-1h-2v2l1 1a494 494 0 0 0 6 3l1 1 3 1 2-1v-1l-1-2v-2l1-1v-2h1a18 18 0 0 1 4 1l2 1h2l1 2 2 2v1h-1l-1 1v2l1 1 2-1v-1l1-1v-1l-1-1 1-1 2 1a145 145 0 0 1 5 2v2l-1 2-2 2-2 1-1 1-1 1-1 1h-4v1l1 3-1 3-1 3h-1l-2 1v6h4v-1l1-2 1-1v3l-1 1v2l1 3v4l-1 2v2l-1 1v1l-1 2-3 3-3 1-2 1v4l-1 1-1-1-1-1h-1l-1 1 1 2-1 1-1 1-2 1v-1zm-168-8h-1 1zm185-16h-1 1zm-7-4h-1l1 1v-1zm-1-2h-1l1 1v-1zm4-14 1-1 1-1h-2l-1 1v2l1-1zm-156-4 1-1h-1l-1-1v2h1zm145-8-1-1v-1 2h1zm-2-13h-1 1zm8-22h-1l1 1v-1zm-3-2v-1l-1 1h1zm-165-22h-1v1l1-1zm144-2v-2h-2a88 88 0 0 0 1 2v1l1-1zm-134-52-1-2h-2l1 2 2 1v-1zm85-23 1-3-1-3h-1l-1 3 1 3h1zm-4-89v-2h-2l-1 1-1 1v1h3l1 1v-2zm-2-3zm-2-1zm-33-13v-3l-1-1-2-1h-1v2l-1 1-1 1 2 2 2 2 1 1 1-4zm1-3zm-4-5 1-1 1 1 1-1 1-2-1-1h-1l-1 1v1l-1 1v-3l-1-2h-1v6l1 1 1-1zm-49-31-1-1-1-1-1 1 1 1h2zm92-5-1-1-1-1-1 1v1l1 1 2-1zm-60-8 3-2 4-3 4-3 2-2h1l2-2 3-1 2-2 2-1 1 1h1v-1l1-2 3-2h2l1-1 2-2 6-5 4-4 1-2v-2h1l3-2 3-4 2-3 2-4 3-3 1-2-1-2v-5l1 1h1l1-4a37 37 0 0 1 2-7l1-2v-5l-1-4-1-2-1-3v-2h1l2-1 1-2-1-2-1-3 1-3-1-3v-3l-1-1v-1l-1-2v-9a170 170 0 0 1-3-10l-1-1-1 1-1 1-1 1-1-1-1-2-2-3-1-1h2l3 1h2v-3l-1-5-2-4-2-2-2-2h-1l-1-1-2-1-1-3-2-2a92 92 0 0 1-9-4l-3-3-2-2-4-1-2-2h-1l-2-1-5-3-3-2h-1l-2-1h-3v2l1 3-1 2 1 3v6a204 204 0 0 1-3 19l1 2v13l1 1-1 1-1 2v8l-1 3-1 4v4l-1 2 1 1-1 2-1 6a78 78 0 0 1-1 9v7a59 59 0 0 1-1 12v4a145 145 0 0 1-2 20l1 4v2l1 1h2v1h-1l-3 1-1 2v3l1 5v4l-1 3v8l-1 1v2l2 3h1l3-1zm-29-8 1-2 1-3-1-2-1-1-1 1-1 3 1 4v2l1-1v-1zm94-2v-1h-2 1v1h1v1-1zm12-8 2-2-1-1-1 1-2 2-1 1 1 1 2-2zm13-25v1-1zm7-1-1 1h1v-1zm-3-3v-2l-1-1-1 1v2h2zm0-12s0 1 0 0zm-129-11-1-1h-1v1a139 139 0 0 0 2 0zm124-14v-1 1zm-15-60zm-45-39-1 1h1v-1zm-56-8c1 0 1 0 0 0v1-1zm339 533zm-173-1 1-1v1h-1zm72-54-2-1-1-2-2-2-2-3-1-2v-1h1l1-2v-2l-3-1h-3a31 31 0 0 0-4-1h-1l-2 1-1-1-2-3-3-1-2-1-2-3-2-2-2-2-1-2c0-1 0-2-2-3l-3-4-2-2-2-3a1080 1080 0 0 0-6-15 26 26 0 0 0-4-8l-1-2v-2l-2-1v-1l1-2 2-3v-2l-1-3v-1l-1-3-1-4a205 205 0 0 1-1-4l-1-2-1-3-1-1v-2l-1-2-2-1h-2v-2l1-2 1-1 1-3v-1l1-2-1-3v-2l-1-1-2-1v-2l1-2 1-2 1-3v-5l-1-3v-8l1-2 1-3-1-4-2-1v-4a94 94 0 0 0-1-8v-2h2v-5a38 38 0 0 1-3-7h1l1-1 1-2v-3l1-4v-3l-1-3v-1l2-1v-2l1-3 1-2v-1l1-6v-6h-2v-2l1-1 3-1 2-1 2-2 3-2 1-2h4l1 1 2 1h2l1-1 1 1h3l2-1h3l3-1 1-3v-3l1-1 1 2 1 2-1 1-1 2h5l1-1-1-1v-3l1 1 2 1 1 1 2 2h3l3 2 2 2 3 2 1 2 1 2c2 1 2 1 2 3v3l1 1 1 1v1a9 9 0 0 0-3 4v2l-1 4a236 236 0 0 0 0 10l-1 3a10 10 0 0 1-3 5l-1 1h-1a10 10 0 0 1 1 3v3l1 1-1 1c-2 0-2 0-1 1v1l-1 1v6l-2 2v2l1 1v3l-1 5v8l-1 2 1 4v6l1 4 1 3 1 4 1 3v1l1 2 2 3 2 3v3l1 3v1l2 1 1 2 1 2 2 2 1 1-1 1-1 1v5l2 1 3 1 3 1 4 1a120 120 0 0 0 9 1h3v-1l1-1h1l2 1 3 1 4-1a202 202 0 0 0 13-8l1-3-1-2-1-1h-1v-2l1-1 1-1 1-2 1-2 1-2 1-2 1-1v-2a537 537 0 0 0-2-32v-5l1-3-1-3-2-2-1-3 1-1h1v-5l-1-4-1-4v-4l-1-4v-16a29 29 0 0 0-2-6 8 8 0 0 0-4-2h-1l1-2 2-1 1-1 1-1 1-2v-1a100 100 0 0 1-1-11v-3l-1-3-1-3v-6l-1-1h2l1 1 1-1 1-1v-12l-1-3-2-4v-4l1-1h1l-1-1v-9l1-2v-5l-1-5 1-4 1-3v-4l1-4v-10l1-2-1-2v-2a15 15 0 0 0 0-5v-3l1-2-1-3-1-2v-5l1-2v-8a24 24 0 0 1 1-6v-3l-1-4v-4l-1-2a215 215 0 0 0 1-10l-1-5 1-3 1-4 1-7-1-4-1-9v-8l-1-2-1-2-1-2 1-1c2 0 2 0 2-2v-6l-1-4v-9a1014 1014 0 0 1 1-29l1-5-1-6v-7a28 28 0 0 0 0-8l-1-2v-4l1-5 2-2 1-2 3-2h2l2-1 1-1 1-2 2-4 2-3 2-1 7-1h4l1-1 1-1h1a303 303 0 0 1 7 1l1 2v1h2l4 1a28 28 0 0 1 5 3l1 2 2 2 2 2v2l-1 3-1 2 1 2h1l1-1h1l-1 1v2l-1 2-1 4 1 3 1 1v2h-1l-1-1-1 1v3l-1 4 1 3v1a195 195 0 0 0-3 23l-1 4v2l1 3-1 2a444 444 0 0 0 0 8v3l-1 5v4l-1 2 1 3-1 4v7a303 303 0 0 0 0 16v3l-1 1h2v5l-1 2v3l1 3v5l1 4v3l1 4 1 3v15l1 1h2v1l-1 1-1 4a115 115 0 0 1 0 10l1 2 2 2 1 2-2 2-1 3v6a592 592 0 0 0 0 9l-1 4v7a558 558 0 0 0-1 10 2083 2083 0 0 1 4 39l2 2-1 1-1 1h-2v4l-1 5-1 3v9l1-1h1v1l-1 1v2l1 1v1l1 1-1 2v1l-1 1v5l-1 4-1 2v14l1 1 1 2v1l-1 1-1 2a85 85 0 0 1 1 10v8l-1 2h2l2 1 2 1 1 1-1 2-2 1-1 1v1l-1 2-1 1 1 2v14l1 5v8l1 5v4l-1 3v7l-1 6-1 1-1 2v4a76 76 0 0 0 2 15l-1 2-1 3v1h-1l-1-1-1-1v2l-1 7 1 7-1 1h-4v1h-1l-1 1-1 1-1 2-1 4v2l-1 1-2-1h-1l-1 1v2l-1 1-1 1-1 2v2h-2l-1 1-1 1-1 2-2 3-1 1-2 1-3 2-2 1-1 3-1 2h-5l-1 1h-2l-1 2-2 1h-2l-1 1h-2l-2 1-2 1v2l1 1a212 212 0 0 0 0 2l-1-1h-2l-1-1-1 1-1 1v-2l-2-1-1 1h-4l-1-1h-6l-2 1-3 2-3 1a162 162 0 0 0-8 0h-7l-1-1-2-1v-1l-1-2v-1l-2 1v2l-1 1 1 2 1 1v1l2 1v1h-1l-1-1zm4-37-1-1-2-1-2-2-3-2-1 1 1 2 2 2 3 2h2l1-1zm-50-39h-1l1 1v-1zm-6 0v1-1zm112-6c0-1 0-1 0 0zm2 0h-1 1zm-1-2h-1l1 1v-1zm-119-23v-3l-1-2-1 1a12 12 0 0 0 1 4v1l1-1zm28-15v1-1zm10-1h-1c-1 0-1 0 0 0h1zm-11 0zm24-63v-1h-1l1 1zm5-20h1l-1-1-1 1v1l1-1zm66-133h-1l1 1v-1zm-1-1h-1c-1 0-1 0 0 0l1 1v-1zm-2-1h-1 1zm-401 341v1-1zm0 0v-1l1 1h-1zm257-1v-2l1-1 1 1 2 2h-1l-1 1-2-1zm4-5-1-1-2-1v-1l1-2h2v1l1-1h1v1h-1l1 1h1l1-1h2v2h-2l-1 1-1 1-1 1-1-1zm-143-6h1-1zm2-27zm-164-59-1-1h-2l1-1a376 376 0 0 0 3 2h-1zm496-62h1v1l-1-1zm-833-25zm300-16h1v1l-1-1zm115-45h1-1zm580-168v1-1zm-585-11s-1 0 0 0zm586-31zm-864-2zm864-11v-4l1-1v-1l1 2v3l-1 1h-1zm1-2c0-1 0-1 0 0zm-105-9v-1l1 1h-1zm103-24 1-2a35 35 0 0 0 2-1l-1 1v2l-1 1v1l-1-2zm1-10v-1h1v1l-1 1v-1zM320-3v-1l1 1h-1zm-528-14h-1l1-1h1l-1 1zm666-9-1-2 1-1v-1l1 2-1 2v1zm-529-4h1v1l-1-1zm-139-19v-2l1 1v1h-1zm309 0v-1l1-2 1-2 1 1v1l-1 1-1 1-1 1zm-323-8z" style="fill:#000;stroke-width:.876738" transform="translate(415 117)"/>
</svg>
